HIERARCHY
ROOT Hips
{
 OFFSET 0.000000 0.000000 0.000000
 CHANNELS 6 Xposition Yposition Zposition Yrotation Xrotation Zrotation
 JOINT Chest
 {
  OFFSET 0.000000 9.585900 0.002600
  CHANNELS 3 Yrotation Xrotation Zrotation
  JOINT Chest2
  {
   OFFSET 0.000000 9.601200 -0.005300
   CHANNELS 3 Yrotation Xrotation Zrotation
   JOINT Chest3
   {
    OFFSET 0.000000 9.561800 0.000000
    CHANNELS 3 Yrotation Xrotation Zrotation
    JOINT Chest4
    {
     OFFSET 0.000000 9.552100 0.000000
     CHANNELS 3 Yrotation Xrotation Zrotation
     JOINT Neck
     {
      OFFSET 0.000000 14.453000 0.000000
      CHANNELS 3 Yrotation Xrotation Zrotation
      JOINT Head
      {
       OFFSET 0.000000 8.936500 -0.011300
       CHANNELS 3 Yrotation Xrotation Zrotation
       End Site
       {
        OFFSET 0.000000 17.073600 -0.006000
       }
      }
     }
     JOINT RightCollar
     {
      OFFSET -2.921100 9.558500 0.000000
      CHANNELS 3 Yrotation Xrotation Zrotation
      JOINT RightShoulder
      {
       OFFSET -13.519700 0.000000 0.000000
       CHANNELS 3 Yrotation Xrotation Zrotation
       JOINT RightElbow
       {
        OFFSET 0.000000 -29.696600 0.000000
        CHANNELS 3 Yrotation Xrotation Zrotation
        JOINT RightWrist
        {
         OFFSET 0.000000 -24.004700 0.000000
         CHANNELS 3 Yrotation Xrotation Zrotation
         End Site
         {
          OFFSET 0.000000 -17.728500 0.000000
         }
        }
       }
      }
     }
     JOINT LeftCollar
     {
      OFFSET 2.921100 9.558500 0.000000
      CHANNELS 3 Yrotation Xrotation Zrotation
      JOINT LeftShoulder
      {
       OFFSET 13.519700 0.000000 0.000000
       CHANNELS 3 Yrotation Xrotation Zrotation
       JOINT LeftElbow
       {
        OFFSET 0.000000 -29.696600 0.000000
        CHANNELS 3 Yrotation Xrotation Zrotation
        JOINT LeftWrist
        {
         OFFSET 0.000000 -24.004700 0.000000
         CHANNELS 3 Yrotation Xrotation Zrotation
         End Site
         {
          OFFSET 0.000000 -17.728500 0.000000
         }
        }
       }
      }
     }
    }
   }
  }
 }
 JOINT RightHip
 {
  OFFSET -7.771700 -0.012900 -0.001300
  CHANNELS 3 Yrotation Xrotation Zrotation
  JOINT RightKnee
  {
   OFFSET 0.000000 -40.869800 0.001200
   CHANNELS 3 Yrotation Xrotation Zrotation
   JOINT RightAnkle
   {
    OFFSET 0.000000 -39.717900 0.002100
    CHANNELS 3 Yrotation Xrotation Zrotation
    JOINT RightToe
    {
     OFFSET 0.000000 -4.965400 11.033500
     CHANNELS 3 Yrotation Xrotation Zrotation
     End Site
     {
      OFFSET 0.000000 -1.423100 5.872300
     }
    }
   }
  }
 }
 JOINT LeftHip
 {
  OFFSET 7.771700 -0.012900 -0.001300
  CHANNELS 3 Yrotation Xrotation Zrotation
  JOINT LeftKnee
  {
   OFFSET 0.000000 -40.869800 0.001200
   CHANNELS 3 Yrotation Xrotation Zrotation
   JOINT LeftAnkle
   {
    OFFSET 0.000000 -39.717900 0.002100
    CHANNELS 3 Yrotation Xrotation Zrotation
    JOINT LeftToe
    {
     OFFSET 0.000000 -4.965400 11.033500
     CHANNELS 3 Yrotation Xrotation Zrotation
     End Site
     {
      OFFSET 0.000000 -1.423100 5.872300
     }
    }
   }
  }
 }
}
MOTION
Frames: 7
Frame Time: 0.008333
0.000000 85.388000 0.000000 0.000000 -5.767877 0.000000 0.000000 11.653817 0.000000 0.000000 -5.885947 0.000000 0.000000 -0.000000 0.000000 0.000000 -0.000000 0.000000 0.000000 12.528835 0.000000 0.000000 0.711642 0.000000 0.000000 -0.000000 0.000000 0.000000 0.000000 -90.000000 0.000000 -2.309062 0.000000 0.000000 2.309062 0.000000 0.000000 -0.000000 0.000000 0.000000 -0.000000 90.000000 0.000000 -2.309062 0.000000 0.000000 2.309062 0.000000 0.000000 8.520406 0.000000 0.000000 1.905762 0.000000 -0.000000 -4.658285 0.000000 0.000000 -0.000000 0.000000 0.000000 8.520406 0.000000 0.000000 1.905762 0.000000 -0.000000 -4.658285 0.000000 0.000000 -0.000000 0.000000
-195.948099 57.577999 -62.845931 157.074159 -9.707008 0.183273 4.500339 7.223356 1.474635 0.218615 0.366411 0.036070 0.372360 0.648795 0.050222 4.005620 6.873168 0.756205 0.808311 18.586283 -0.955169 1.845424 -1.229789 -2.015293 1.134234 8.633475 0.276924 -4.645438 -8.083697 -6.222424 39.034846 -78.241663 -24.297868 -2.392228 2.890423 -32.018254 -5.621762 8.383568 -2.419555 15.301367 -6.324157 1.519194 4.653228 -82.808450 -25.241627 -1.054801 3.206840 20.407270 -13.224165 -62.237581 8.387173 -30.411371 71.832562 -31.148387 -3.443420 -6.013093 -1.312540 -0.331947 0.683987 -0.157228 2.066927 -64.817142 17.656544 40.951914 66.523942 33.983259 -17.311123 -10.375477 3.796161 -0.089815 -0.972735 -0.053529
-195.946012 57.576562 -62.845370 157.087723 -9.715100 0.180764 4.493657 7.223258 1.486705 0.213432 0.372286 0.028390 0.372288 0.648641 0.050320 4.011796 6.868659 0.767622 0.839747 18.615111 -0.962758 1.847645 -1.203797 -2.034117 1.157183 8.626613 0.280622 -4.692594 -8.128590 -6.232537 37.797178 -78.615156 -22.998762 -2.583769 2.630006 -31.986062 -5.601420 8.353816 -2.430379 15.388039 -6.344092 1.526649 10.780588 -82.506033 -31.518052 -0.861241 3.010348 20.421408 -13.232531 -62.233199 8.384762 -30.429281 71.838142 -31.168691 -3.432814 -6.009937 -1.310880 -0.340940 0.677677 -0.156285 2.049024 -64.808802 17.660185 40.954186 66.513759 33.988434 -17.321392 -10.353459 3.788372 -0.101546 -0.959838 -0.051937
-195.945892 57.574957 -62.846021 157.093428 -9.725650 0.194579 4.492380 7.230272 1.482108 0.213512 0.372338 0.028647 0.372230 0.648721 0.050710 4.009085 6.871265 0.765639 0.859170 18.628554 -0.964488 1.868859 -1.170742 -2.053918 1.182012 8.615065 0.290952 -4.737536 -8.176975 -6.246099 36.581372 -78.961796 -21.715891 -2.765637 2.392986 -31.983484 -5.583184 8.319522 -2.437512 15.476658 -6.373339 1.541989 16.061943 -82.117640 -36.963888 -0.672110 2.809357 20.442926 -13.202158 -62.229327 8.349604 -30.449731 71.839838 -31.189025 -3.440067 -6.013014 -1.316472 -0.336763 0.680833 -0.148699 2.060628 -64.797442 17.639097 40.958278 66.511432 33.990020 -17.341079 -10.322920 3.783967 -0.092544 -0.957799 -0.048593
-195.943866 57.573151 -62.845762 157.091782 -9.735608 0.197241 4.509450 7.222313 1.502046 0.205585 0.383371 0.017857 0.381648 0.638766 0.063137 3.994580 6.887031 0.753204 0.872802 18.636962 -0.966291 1.883104 -1.146248 -2.067344 1.207871 8.603139 0.301676 -4.776285 -8.225367 -6.264365 35.414123 -79.281942 -20.488442 -2.924743 2.185535 -32.007465 -5.570511 8.286433 -2.443583 15.566016 -6.412351 1.559865 20.435464 -81.688855 -41.507664 -0.501052 2.620188 20.472049 -13.185510 -62.224036 8.338561 -30.469771 71.841073 -31.208036 -3.440150 -6.009664 -1.316902 -0.339191 0.678944 -0.147664 2.052112 -64.788403 17.650153 40.979659 66.506209 34.011148 -17.366458 -10.295259 3.771663 -0.075355 -0.967919 -0.040762
-195.941894 57.571202 -62.845401 157.087860 -9.744644 0.199393 4.516809 7.225729 1.507044 0.210769 0.378870 0.024397 0.380731 0.637886 0.062212 4.001537 6.887281 0.760506 0.858736 18.650006 -0.980234 1.887437 -1.138035 -2.071477 1.215540 8.603734 0.299185 -4.797770 -8.274786 -6.280264 34.374236 -79.574677 -19.399728 -3.055574 2.008587 -32.055183 -5.576307 8.271928 -2.457627 15.658412 -6.468103 1.576871 23.950927 -81.265946 -45.189141 -0.352489 2.453621 20.503414 -13.171597 -62.218213 8.330238 -30.463106 71.844694 -31.202874 -3.440840 -6.008281 -1.313597 -0.343592 0.680189 -0.150797 2.050554 -64.781723 17.654170 40.994554 66.503462 34.028506 -17.369199 -10.272760 3.765581 -0.070519 -0.975157 -0.039494
-195.941666 57.569174 -62.845535 157.094384 -9.752016 0.208599 4.512214 7.227613 1.502444 0.214330 0.372880 0.029651 0.382261 0.639039 0.062387 4.004304 6.886618 0.766955 0.869323 18.665510 -0.984932 1.907888 -1.108813 -2.083074 1.210173 8.612451 0.289141 -4.790148 -8.329162 -6.290658 33.517605 -79.839098 -18.507319 -3.160084 1.854352 -32.123474 -5.586863 8.275004 -2.471994 15.753661 -6.544386 1.595241 26.712729 -80.887889 -48.101396 -0.227281 2.309444 20.535774 -13.152148 -62.216931 8.302478 -30.476403 71.848278 -31.217647 -3.432428 -6.009517 -1.309923 -0.347466 0.682592 -0.152756 2.056348 -64.776518 17.638753 40.997392 66.502123 34.031657 -17.378352 -10.242725 3.768158 -0.085938 -0.975860 -0.046658
